<svg width="439" height="439" viewBox="0 0 439 439" fill="none" xmlns="http://www.w3.org/2000/svg">
<path d="M107.033 219.175L218.741 330.884L243.281 306.344L259.762 322.826L219.474 363.114C219.069 363.519 218.413 363.519 218.009 363.114L74.8019 219.907C74.3974 219.503 74.3974 218.847 74.8019 218.442L146.222 147.022L162.704 163.504L107.033 219.175Z" fill="white"/>
<path d="M193.836 132.372L218.741 107.466L330.45 219.175L274.413 275.212L290.894 291.694L362.681 219.907C363.085 219.503 363.085 218.847 362.681 218.442L219.474 75.2355C219.069 74.8309 218.413 74.8309 218.009 75.2355L177.354 115.89L193.836 132.372Z" fill="white"/>
<path d="M49.5085 219.5L219.5 389.492L256.842 352.149L281.923 377.23L220.615 438.538C219.999 439.154 219.001 439.154 218.385 438.538L0.461724 220.615C-0.153907 219.999 -0.153908 219.001 0.461723 218.385L109.145 109.702L134.226 134.783L49.5085 219.5Z" fill="white"/>
<path d="M181.6 87.4082L219.5 49.5085L389.492 219.5L304.217 304.774L329.298 329.855L438.538 220.615C439.154 219.999 439.154 219.001 438.538 218.385L220.615 0.461724C219.999 -0.153907 219.001 -0.153906 218.385 0.461716L156.52 62.3275L181.6 87.4082Z" fill="white"/>
</svg>
